<?xml version="1.0" encoding="UTF-8"?>
<svg width="337.5" height="255.6" preserveAspectRatio="xMidYMid" version="1.0" viewBox="0 0 253.12 191.7" xmlns="http://www.w3.org/2000/svg" zoomAndPan="magnify">
<defs>
<clipPath id="a">
<path d="m74.379 91.676h187.5v187.5h-187.5z"/>
</clipPath>
<clipPath id="c">
<path d="m74.379 95.875h187.5v187.5h-187.5z"/>
</clipPath>
<clipPath id="b">
<path d="m188 156.07h139.75v28.926h-139.75z"/>
</clipPath>
</defs>
<g transform="translate(-74.379 -91.676)" clip-path="url(#a)">
<path d="m168.13 279.18c-51.68 0-93.75-42.07-93.75-93.75 0-51.676 42.07-93.75 93.75-93.75 51.676 0 93.75 42.074 93.75 93.75 0 51.68-42.074 93.75-93.75 93.75zm0-186.11c-50.938 0-92.363 41.426-92.363 92.363 0 50.941 41.426 92.367 92.363 92.367s92.363-41.426 92.363-92.367c0-50.938-41.426-92.363-92.363-92.363z" fill="#514343"/>
</g>
<g transform="translate(-74.379 -91.676)" clip-path="url(#c)">
<path d="m168.13 283.38c-51.68 0-93.75-42.074-93.75-93.75 0-51.68 42.07-93.75 93.75-93.75 51.676 0 93.75 42.07 93.75 93.75 0 51.676-42.074 93.75-93.75 93.75zm0-186.11c-50.938 0-92.363 41.422-92.363 92.363 0 50.938 41.426 92.363 92.363 92.363s92.363-41.426 92.363-92.363c0-50.941-41.426-92.363-92.363-92.363z" fill="#514343"/>
</g>
<g transform="translate(-74.379 -91.676)" clip-path="url(#b)">
<path d="m325.88 156.49c-0.83204-0.35937-1.8008-0.39844-1.6953 0.75391 0.17969 2.125-1.0781 4.5703-2.2305 6.3008-1.2266 1.8711-2.8828 3.3828-4.793 4.5703-5.4727 3.3477-11.703 5.1484-18.117 5.3281-3.2383 0.0703-6.4102-0.25391-9.6133-0.64844-6.6289-0.86328-13.543-1.8711-20.207-0.90235-1.1875 0.1836-2.3789 0.46875-3.5312 0.9375-0.50391 0.21485-0.86329 0.0703-1.2578-0.25-2.7031-2.1992-5.8711-3.3867-9.293-3.9609-3.8203-0.6836-7.6367-0.32422-11.453 0.14453-4.0703 0.46875-8.0312 1.4375-11.887 2.8086-5.5117 1.9414-10.879 4.2812-16.207 6.6562-2.918 1.2969-5.8711 2.5547-8.9688 3.2774-2.8438 0.64843-6.2656 1.0781-9.0391-0.0352-1.7305-0.6875-3.1328-1.9453-3.8203-3.6719-0.7539-1.9453-0.97265-4.0703-0.71875-6.0859 0.14454-0.89844 0.32422-1.8711 0.71875-2.6992 0.32422-0.6836 0.97266-1.582 0.17969-2.1953-1.6172-1.293-3.9258 0.53906-4.5352 2.0508-1.9102 4.7891-0.0742 10.152 4.0703 13.066 3.8516 2.7383 9.1836 3.3828 13.758 2.5195 3.7461-0.68359 7.2383-2.1211 10.66-3.7773 4.8984-2.3398 9.832-4.5352 14.875-6.5508 6.0156-2.4141 12.57-3.8164 19.055-3.9609 2.1602-0.0352 4.3906 0.14453 6.4805 0.75781 1.875 0.57422 3.7461 1.2578 5.1524 2.7695-0.0742-0.0703-1.0469 0.71875-1.1524 0.79296-1.3711 1.1524-1.9102 2.8438-1.7656 4.5703 0.0703 0.9375 0.28906 1.8359 1.043 2.4844 2.668 2.2656 5.332-2.125 5.332-4.4648 0-0.96875-0.4336-1.7969-0.79297-2.6641-0.0703-0.21485 1.5469-0.60938 1.6914-0.64454 1.0469-0.28906 2.0195-0.46875 3.0625-0.54296 4.3594-0.32422 8.7148 0.0391 13.039 0.5039 3.3867 0.39844 6.6992 1.1172 10.086 1.4766 6.5156 0.72266 12.855 0.46875 19.016-2.0156 2.4492-0.97266 4.7891-2.1211 7.0234-3.4922 1.9102-1.1484 3.6016-2.6992 4.8984-4.4961 1.043-1.4062 2.0156-3.0234 2.4141-4.7539 0.39453-1.4726 0.0351-3.2734-1.4766-3.957zm-61.809 22.746c-0.28515 0.46875-0.7539 1.2969-1.3672 1.4062-0.46875 0.0703-0.57421-0.68359-0.64843-1.0078-0.0703-0.5039 0-1.0078 0.0742-1.5117 0.14062-0.79297 0.57421-1.5117 1.1133-2.0898 0.10937-0.10547 1.1172-0.97266 1.1523-0.89844 0.39844 0.53906 0.57813 1.332 0.50781 2.0156-0.0391 0.71875-0.43359 1.4375-0.83203 2.0859z" fill="#514343"/>
</g>
<g transform="translate(-74.379 -91.676)" fill="#514343">
<g transform="translate(117.04 204.55)">
<path d="m1.3438 22.852c2.2695 0 3.8633-4.2852 4.1172-6.4688 0.25-1.1758 0.41797-2.3555 0.50391-3.5312 0.082031-1.1758 0.16797-2.3516 0.25-3.5273 0.42188-5.6289-0.50391-11.258-2.6016-16.715l-0.50391-1.2617c-0.085937-0.42188 0.082031-0.67188 0.41797-0.92578 0.58984-0.33594 1.3438-0.58594 2.1016-0.75391 1.5938-0.58984 2.9414-1.1758 4.5352-1.9336 1.5977-0.83984 3.1914-1.6797 4.7891-2.5195 1.5977-0.75781 3.1914-1.5977 4.7891-2.3516 0.25-0.16797 0.58594-0.33594 0.83984-0.50391 0.25-0.08594 0.58594-0.25391 0.83984-0.42188 0.41797-0.25 0.58594-0.67188 0.41797-1.1758-0.08203-0.50391-0.41797-0.75391-1.0078-0.75391h-0.08203c-0.08594 0.08203-0.08594 0.08203-0.16797 0.08203-0.67188 0.25391-1.3438 0.50391-2.0156 0.83984l-9.0742 4.6211c-1.4258 0.75781-2.9414 1.5117-4.5352 1.9336h-0.25391c-0.25 0-0.41797 0-0.50391-0.08594-0.41797-0.25-0.33594-0.67188-0.082031-1.0078 0.25-0.58594 0.58594-1.1758 1.0078-1.9336 0.75391-1.2578 1.6797-2.6875 2.6055-4.1992 4.1992-6.5508 12.934-21.504 13.859-29.066 0.25-1.0078 0.16797-1.8477-0.83984-2.4336-0.08594-0.08594-0.25391-0.08594-0.50391-0.08594-1.9336 0-4.8711 4.6211-6.7227 7.8984-1.7617 3.1914-4.2812 8.4844-4.8711 9.9961-5.7969 14.449-10.5 29.316-11.172 45.027-0.085938 1.9297 0.16797 3.8633 0.41797 5.7969 0.25391 1.8477 1.4297 5.4609 3.4453 5.4609zm0.16797-2.6914c-0.16797 0-0.33594-0.08203-0.50391-0.33594-0.67187-1.2578-0.83984-2.4336-1.0937-3.6953-0.41797-3.2773-0.25-6.6367 0.17188-9.9141 0.33594-3.6094 0.75391-7.2227 1.7617-10.582 0.67188 0.41797 0.83984 0.92188 0.92578 1.3438 0.67187 2.3516 1.1758 4.7031 1.2578 7.3086 0.25391 3.7812 0 7.6445-0.58594 11.426-0.25391 1.5938-0.50391 2.8555-1.4297 4.1133-0.082031 0.25391-0.25 0.33594-0.50391 0.33594zm5.6289-42.336v-0.16797c0.082031 0.08203 0.16797 0.16797 0.25 0.16797-0.41797-0.58984-0.25-1.1797 0-1.7656 2.6055-7.4766 5.3789-14.703 9.6641-21.422 0.25-0.42188 0.58594-0.92578 0.83984-1.5117 0.25-0.50391 0.67188-0.83984 1.3438-1.0078 0.25 0.58594 0.25 1.1758 0 1.6797-0.25391 0.50391-0.42188 1.0078-0.58984 1.5117-3.0234 7.9805-6.8047 15.375-11.258 22.516z"/>
</g>
</g>
<g transform="translate(-74.379 -91.676)" fill="#514343">
<g transform="translate(134.77 204.55)">
<path d="m5.8789 8.2344c3.8672 0 8.2344-9.0742 9.832-12.434l6.2969-13.777c0.75781-1.6797 1.5156-3.2773 2.5234-5.3789 0.41797 1.2617 0.25 1.9336 0 2.6914-0.92578 3.4414-1.3438 6.8867-1.7656 10.5-0.08203 1.4258-0.16797 2.8555-0.16797 4.2852 0 1.4258 0.16797 2.7695 0.58984 4.1992 0.75391 3.2773 3.1914 7.1406 6.5508 7.1406 5.4609 0 9.9961-9.5781 12.012-14.281 3.9492-9.8281 5.5469-20.078 6.1328-30.578 0.08594-0.25391 0.08594-0.58984 0.08594-0.83984-0.08594-0.25391-0.08594-0.58984-0.08594-0.83984-0.08203-0.67188-0.58594-1.7656-1.5117-1.7656-0.25 0-0.41797 0-0.50391 0.08594-0.41797 0.25-0.75781 0.67187-0.50391 1.0898 0.67188 1.4297 0.33594 2.9414 0.25391 4.3711-0.84375 11.59-4.0352 27.469-10.922 36.961-1.0078 1.3438-3.0234 3.6133-4.957 3.6133-2.3516 0-4.1172-3.6992-4.5352-5.7148-0.50391-2.0977-0.58984-4.2812-0.33594-6.5508 0.33594-3.6133 0.92187-7.2266 1.6797-10.836 0.58594-2.6055 1.0898-5.043 1.6797-7.4766 0.25-1.0938 0.41797-2.0156 0.33594-2.7734-0.08594-0.58984-0.42188-1.0078-1.0078-1.1758-0.08594 0-0.08594 0-0.16797-0.08594h-0.16797c-0.33594 0-0.67188 0.16797-0.92578 0.42188-0.41797 0.33594-0.67188 0.75781-0.92188 1.1758-0.25391 0.42188-0.50391 0.92578-0.75781 1.3438-1.4258 2.9414-2.8555 5.7109-4.1992 8.6523-1.0938 2.4375-2.1836 4.7891-3.2773 7.2266-1.0898 2.4336-2.2695 4.7852-3.3594 7.2227-1.0078 2.2695-5.375 11.258-7.8984 11.258-0.33594 0-0.75391-0.25391-1.1758-0.67188-0.75391-0.92578-1.1758-2.1016-1.5117-3.1914-0.92188-3.6133-1.1758-7.0586-0.92188-10.672 0.75391-12.684 4.9531-24.023 10.668-35.195 0.92188-1.6836 1.8477-3.1094 3.1094-4.5391 0.08203-0.16797 0.25-0.33594 0.41797-0.50391 0.16797-0.16797 0.33594-0.33594 0.42188-0.58594 0.16797-0.42188 0.16797-0.75781 0-1.0078-0.25391-0.25391-0.58984-0.42188-0.83984-0.42188-0.16797 0-0.33594 0-0.42188 0.08594-0.67188 0.25-1.0938 0.58594-1.4297 1.1758-1.3438 1.6797-2.6016 3.3594-3.5273 5.293-5.293 10.668-9.4922 21.336-10.414 33.348-0.42188 4.6211-0.42188 8.9883 0.83984 13.359 0.75391 2.5195 2.0156 5.7969 4.7852 5.7969z"/>
</g>
</g>
<g transform="translate(-74.379 -91.676)" fill="#514343">
<g transform="translate(184.33 204.55)">
<path d="m8.4023 6.9727c0.25 0 0.50391-0.085937 0.75391-0.33594 0.58984-0.42188 0.58984-1.0938 0.67188-1.7656 2.3516-15.203 5.125-29.988 8.7383-45.027 0.25-1.2578 1.0078-1.9297 2.0977-2.0156 1.7656-0.25 3.6133-0.41797 5.3789-0.67188 1.7617-0.25 3.5273-0.41797 5.293-0.58594 2.0156-0.25391 4.0312-0.50391 6.0469-0.67187 2.0156-0.16797 4.0312-0.33594 5.9648-0.50391l1.0898-0.25391c0.50391-0.25 0.67188-0.58984 0.58984-1.0938-0.08594-0.41797-0.33594-0.67188-0.75781-0.75391h-1.9297c-2.8555 0.25-5.7148 0.58594-8.5703 0.83984-2.9375 0.33594-5.7969 0.67188-8.6523 0.92578-0.75391 0.08203-1.4258 0.16797-2.0977 0.25-0.67578 0.08594-1.2617 0.25391-1.7656 0.33594h-0.33594c-1.0938 0-1.3438-0.25-1.0938-1.1758l0.33594-1.8477c0.08594-0.67188-0.08203-1.1758-0.58594-1.4297-0.58984 0-1.0078 0.33594-1.1758 0.92578-0.25391 0.92187-0.42188 1.7617-0.67188 2.6875-0.25391 1.2617-0.92578 1.5977-2.0156 1.8477-2.6055 0.42188-5.2109 1.0078-7.8125 1.5977l-12.855 2.7695c-0.41797 0.08594-0.83984 0.16797-1.2578 0.25391-0.42188 0.08203-0.75781 0.33594-1.0938 0.58594-0.082031 0.08594-0.16797 0.25391-0.16797 0.33594 0 0.17188 0 0.33984-0.085938 0.42188 0 0.58984 0.75781 0.67187 1.1797 0.67187 0.25 0 0.50391 0 0.75391-0.08203 0.25391-0.08594 0.50391-0.08594 0.75781-0.16797 2.4336-0.50391 4.7852-1.0117 7.1406-1.5977 2.3516-0.50391 4.7031-1.0078 7.1406-1.4297 2.0156-0.58594 4.1133-0.92188 6.1328-1.2578h0.25c0.58984 0 0.83984 0.33594 0.67188 0.92188-0.08203 0.67188-0.25 1.1758-0.33594 1.5977-2.6055 10.418-4.7031 20.75-6.4688 31.25l-2.0156 12.18c-0.082031 0.58984-0.25391 1.0938 0 1.6797 0.085938 0.42188 0.33594 0.58984 0.75781 0.58984z"/>
</g>
</g>
<g transform="translate(-74.379 -91.676)" fill="#514343">
<g transform="translate(207.52 204.55)"></g>
</g>
<g transform="translate(-74.379 -91.676)">
<g transform="translate(109.68 141.15)">
<path d="m-3.2031-5.0312 1.8594 1.625 2.1406-2.4531 0.4375 0.39062-2.1406 2.4531 2.0156 1.75-0.4375 0.48438-4.7344-4.125 2.8438-3.25 0.42188 0.35938z"/>
</g>
</g>
<g transform="translate(-74.379 -91.676)">
<g transform="translate(117.23 133.06)">
<path d="m4.0625-3.4219-2.4062-0.625c-0.11719 0.11719-0.24219 0.23047-0.375 0.34375l-1.2969 1.0781 1.2969 1.5312-0.5 0.42188-4.0469-4.7969 1.7969-1.5c0.61719-0.51953 1.2188-0.78125 1.8125-0.78125 0.59375-0.007812 1.1094 0.24219 1.5469 0.75 0.3125 0.375 0.47656 0.77734 0.5 1.2031 0.03125 0.41797-0.078125 0.82812-0.32812 1.2344l2.5625 0.65625zm-3.1562-0.70312c0.47656-0.39453 0.75391-0.80469 0.82812-1.2344 0.070313-0.42578-0.046875-0.82812-0.35938-1.2031-0.33594-0.38281-0.71484-0.57812-1.1406-0.57812s-0.87891 0.19922-1.3594 0.59375l-1.2812 1.0781 2.0312 2.4219z"/>
</g>
</g>
<g transform="translate(-74.379 -91.676)">
<g transform="translate(126.56 125.73)">
<path d="m3.375-4.0156-3 1.8125 0.21875 1.8438-0.57812 0.34375-0.79688-6.8594 0.5625-0.34375 5.7188 3.8906-0.60938 0.35938zm-0.5-0.3125-3.0156-2.125 0.4375 3.6875z"/>
</g>
</g>
<g transform="translate(-74.379 -91.676)">
<g transform="translate(136.85 119.97)">
<path d="m3.4844-8.1719 2.3438 5.8281-0.5 0.20312-5.6719-3.2188 1.9062 4.7344-0.60938 0.23438-2.3438-5.8281 0.51562-0.20312 5.6562 3.2188-1.9062-4.7188z"/>
</g>
</g>
<g transform="translate(-74.379 -91.676)">
<g transform="translate(148.76 115.69)">
<path d="m2.25-3.5312-0.96875 1.5469 0.35938 1.6094-0.64062 0.15625-1.375-6.125 0.64062-0.15625 0.82812 3.7031 2.7812-4.5 0.73438-0.17188-2.0156 3.3594 3.5781 2.7188-0.76562 0.17188z"/>
</g>
</g>
<g transform="translate(-74.379 -91.676)">
<g transform="translate(160.39 113.58)"></g>
</g>
<g transform="translate(-74.379 -91.676)">
<g transform="translate(168.12 113)">
<path d="m10.031-5.6562-2.5156 6.125-0.6875-0.03125-1.5-5.4688-2.1875 5.2344-0.6875-0.046875-1.7344-6.4062 0.6875 0.046875 1.4844 5.5 2.1875-5.2656 0.625 0.03125 1.5 5.5312 2.1875-5.2969z"/>
</g>
</g>
<g transform="translate(-74.379 -91.676)">
<g transform="translate(183.31 114.59)">
<path d="m5.2344-0.45312-3.4062-0.82812-1.1406 1.4531-0.67188-0.17188 4.2969-5.4062 0.625 0.15625 1.2969 6.7969-0.6875-0.17188zm-0.125-0.57812-0.64062-3.6406-2.2812 2.9219z"/>
</g>
</g>
<g transform="translate(-74.379 -91.676)">
<g transform="translate(194.68 117.86)">
<path d="m3.3438-5.4219 0.60938 0.25-2.1719 5.2812 3.25 1.3438-0.21875 0.53125-3.8594-1.5938z"/>
</g>
</g>
<g transform="translate(-74.379 -91.676)">
<g transform="translate(204.41 122.27)">
<path d="m4.0625-1-1.75 0.45312-0.85938 1.4219-0.5625-0.34375 3.2344-5.3906 0.5625 0.34375-1.9531 3.2656 5.1094-1.375 0.65625 0.39062-3.7969 1.0469 0.71875 4.4375-0.67188-0.39062z"/>
</g>
</g>
<g transform="translate(-74.379 -91.676)">
<g transform="translate(214.26 128.69)">
<path d="m4.5781 3.0625-0.375 0.4375-3.4062-2.8438 4.0156-4.8281 3.3125 2.7656-0.35938 0.4375-2.8125-2.3438-1.4219 1.7188 2.5 2.0781-0.375 0.4375-2.5-2.0781-1.4844 1.7969z"/>
</g>
</g>
<g transform="translate(-74.379 -91.676)">
<g transform="translate(222.76 136.27)">
<path d="m3.5156 3.9844 0.5625-2.4062c-0.11719-0.11719-0.23047-0.24219-0.34375-0.375l-1.125-1.2656-1.5 1.3281-0.42188-0.48438 4.7188-4.1562 1.5469 1.75c0.53125 0.60547 0.80078 1.2031 0.8125 1.7969 0.019531 0.60156-0.22656 1.125-0.73438 1.5625-0.36719 0.33203-0.76172 0.51562-1.1875 0.54688-0.41797 0.039062-0.82812-0.0625-1.2344-0.3125l-0.60938 2.5625zm0.625-3.1562c0.41406 0.46875 0.83203 0.73438 1.25 0.79688 0.42578 0.070312 0.82031-0.058594 1.1875-0.39062 0.38281-0.33594 0.57031-0.71875 0.5625-1.1562 0-0.42578-0.21094-0.875-0.625-1.3438l-1.1094-1.25-2.375 2.0938z"/>
</g>
</g>
<g transform="translate(-74.379 -91.676)">
<g transform="translate(87.139 186.6)">
<path d="m6.5781 5.9844-6.2812 0.29688-0.015625-0.54688 4.9062-4.2969-5.1094 0.25-0.03125-0.65625 6.2812-0.29688 0.03125 0.54688-4.9062 4.2812 5.0938-0.23438z"/>
</g>
</g>
<g transform="translate(-74.379 -91.676)">
<g transform="translate(88.34 200.11)">
<path d="m1.6875 5.2188-0.5625 0.125-0.90625-4.3281 6.1406-1.2969 0.89062 4.2188-0.54688 0.125-0.76562-3.5781-2.1875 0.45312 0.67188 3.1719-0.5625 0.125-0.67188-3.1719-2.2812 0.46875z"/>
</g>
</g>
<g transform="translate(-74.379 -91.676)">
<g transform="translate(91.334 211.97)">
<path d="m6.1406 0.125-0.76562-2.0781 0.53125-0.1875 1.7656 4.7812-0.53125 0.1875-0.78125-2.0781-5.3594 1.9844-0.21875-0.625z"/>
</g>
</g>
<g transform="translate(-74.379 -91.676)">
<g transform="translate(95.616 222.61)">
<path d="m10.266 5.2188-6.5 1.2969-0.34375-0.59375 3.7188-4.2812-5.5625 1.0781-0.34375-0.59375 4.375-4.9844 0.34375 0.59375-3.7812 4.2812 5.625-1.0781 0.3125 0.53125-3.7656 4.2969 5.6094-1.1094z"/>
</g>
</g>
<g transform="translate(-74.379 -91.676)">
<g transform="translate(104.39 236.37)">
<path d="m2.4219 2.8906c-0.39844-0.46875-0.65625-0.99219-0.78125-1.5625-0.125-0.5625-0.10156-1.1055 0.078125-1.625 0.1875-0.53125 0.50781-0.99219 0.96875-1.3906 0.45703-0.39453 0.96094-0.64453 1.5156-0.75 0.55078-0.10156 1.0977-0.050781 1.6406 0.15625 0.55078 0.19922 1.0234 0.53125 1.4219 1 0.40625 0.46875 0.66406 0.98438 0.78125 1.5469 0.125 0.5625 0.09375 1.1094-0.09375 1.6406-0.17969 0.53906-0.49609 1.0078-0.95312 1.4062-0.46094 0.39453-0.96875 0.64062-1.5312 0.73438-0.5625 0.10156-1.1094 0.050781-1.6406-0.15625-0.53125-0.19922-1-0.53125-1.4062-1zm0.4375-0.375c0.33203 0.375 0.71094 0.63281 1.1406 0.78125 0.4375 0.15625 0.87891 0.19141 1.3281 0.10938 0.44531-0.074219 0.85156-0.27344 1.2188-0.59375 0.375-0.32422 0.64062-0.70312 0.79688-1.1406s0.1875-0.88281 0.09375-1.3281c-0.085938-0.44531-0.29297-0.85938-0.625-1.2344-0.3125-0.375-0.6875-0.64062-1.125-0.79688-0.4375-0.16406-0.88672-0.20312-1.3438-0.10938-0.44922 0.085937-0.85938 0.28906-1.2344 0.60938-0.36719 0.32422-0.625 0.69922-0.78125 1.125-0.14844 0.42578-0.17188 0.86719-0.078125 1.3281 0.09375 0.45703 0.29688 0.875 0.60938 1.25z"/>
</g>
</g>
<g transform="translate(-74.379 -91.676)">
<g transform="translate(113.82 246.47)">
<path d="m4.0781 3.4062 0.1875-2.4688c-0.125-0.09375-0.25781-0.19922-0.39062-0.3125l-1.2969-1.0781-1.2812 1.5312-0.5-0.42188 4.0312-4.8281 1.7969 1.5c0.61328 0.52344 0.97266 1.0781 1.0781 1.6719 0.10156 0.58594-0.0625 1.1289-0.5 1.6406-0.3125 0.375-0.67188 0.60938-1.0781 0.70312-0.40625 0.10156-0.83594 0.066406-1.2812-0.10938l-0.20312 2.6406zm0.14062-3.2188c0.47656 0.39453 0.92969 0.59375 1.3594 0.59375 0.42578 0 0.79688-0.1875 1.1094-0.5625 0.33203-0.38281 0.46094-0.78906 0.39062-1.2188-0.074219-0.42578-0.35156-0.83594-0.82812-1.2344l-1.2812-1.0781-2.0312 2.4219z"/>
</g>
</g>
<g transform="translate(-74.379 -91.676)">
<g transform="translate(123.91 254.26)">
<path d="m4.0625-1-1.7656 0.4375-0.84375 1.4219-0.5625-0.32812 3.2188-5.3906 0.5625 0.32812-1.9375 3.2656 5.0938-1.3594 0.65625 0.39062-3.7812 1.0312 0.73438 4.4531-0.67188-0.40625z"/>
</g>
</g>
<g transform="translate(-74.379 -91.676)">
<g transform="translate(134.96 260.25)"></g>
</g>
<g transform="translate(-74.379 -91.676)">
<g transform="translate(142.9 263.4)">
<path d="m5.25-0.26562-3.375-0.95312-1.2031 1.4062-0.65625-0.1875 4.5-5.25 0.625 0.17188 1.0312 6.8438-0.67188-0.1875zm-0.10938-0.57812-0.51562-3.6406-2.375 2.8125z"/>
</g>
</g>
<g transform="translate(-74.379 -91.676)">
<g transform="translate(155.25 266.44)">
<path d="m1.75-6.1094 2.5156 0.28125c0.66406 0.085937 1.2344 0.28906 1.7031 0.60938 0.47656 0.3125 0.83203 0.72656 1.0625 1.2344 0.22656 0.5 0.30469 1.0547 0.23438 1.6562-0.074219 0.60547-0.27734 1.1328-0.60938 1.5781-0.33594 0.4375-0.77344 0.75781-1.3125 0.96875-0.53125 0.20703-1.1328 0.26953-1.7969 0.1875l-2.5156-0.28125zm1.8281 5.9375c0.55078 0.0625 1.0469 0.011719 1.4844-0.15625 0.4375-0.16406 0.78906-0.42578 1.0625-0.78125 0.26953-0.36328 0.42969-0.79688 0.48438-1.2969 0.0625-0.5 0-0.95312-0.1875-1.3594-0.17969-0.41406-0.46094-0.75391-0.84375-1.0156-0.38672-0.26953-0.85547-0.4375-1.4062-0.5l-1.8438-0.21875-0.59375 5.1094z"/>
</g>
</g>
<g transform="translate(-74.379 -91.676)">
<g transform="translate(168.95 267.52)">
<path d="m7.1562-6.7344 0.39062 6.2656-0.64062 0.046875-0.3125-5.0156-2.2031 4.375-0.3125 0.015625-2.7344-4.0312 0.3125 4.9844-0.625 0.03125-0.39062-6.2656 0.54688-0.03125 3 4.4688 2.4062-4.7969z"/>
</g>
</g>
<g transform="translate(-74.379 -91.676)">
<g transform="translate(183.66 265.95)">
<path d="m-0.28125-6.3594 0.64062-0.125 1.2969 6.1406-0.64062 0.125z"/>
</g>
</g>
<g transform="translate(-74.379 -91.676)">
<g transform="translate(192.34 263.84)">
<path d="m3.7812-8.0312 2.125 5.9062-0.51562 0.1875-5.5312-3.4531 1.7344 4.8125-0.625 0.23438-2.125-5.9062 0.51562-0.1875 5.5312 3.4219-1.7188-4.7969z"/>
</g>
</g>
<g transform="translate(-74.379 -91.676)">
<g transform="translate(204.83 258.72)">
<path d="m-2.0156-6.0469 0.59375-0.29688 2.9219 5.5625-0.59375 0.29688z"/>
</g>
</g>
<g transform="translate(-74.379 -91.676)">
<g transform="translate(212.55 254.31)">
<path d="m2.2969-1.5625c-0.38672 0.27344-0.79688 0.47656-1.2344 0.60938-0.4375 0.13672-0.82422 0.16797-1.1562 0.09375l-0.078125-0.57812c0.32031 0.054688 0.67578 0.03125 1.0625-0.0625 0.38281-0.10156 0.74219-0.27344 1.0781-0.51562 0.45703-0.32031 0.74219-0.64453 0.85938-0.96875 0.11328-0.33203 0.070313-0.63281-0.125-0.90625-0.13672-0.20703-0.3125-0.32812-0.53125-0.35938-0.21094-0.03125-0.42969-0.015625-0.65625 0.046875-0.23047 0.0625-0.53125 0.16797-0.90625 0.3125-0.46094 0.17969-0.83203 0.30469-1.125 0.375-0.30078 0.074219-0.59766 0.074219-0.89062 0-0.28906-0.070313-0.55078-0.26953-0.78125-0.59375-0.17578-0.25781-0.26953-0.54688-0.28125-0.85938-0.00781-0.3125 0.085938-0.62891 0.28125-0.95312 0.1875-0.32031 0.49219-0.62891 0.90625-0.92188 0.30469-0.20703 0.625-0.36719 0.96875-0.48438 0.33203-0.125 0.65625-0.1875 0.96875-0.1875l0.10938 0.5625c-0.32422 0.011719-0.63281 0.070313-0.92188 0.17188-0.28906 0.09375-0.55469 0.22656-0.79688 0.39062-0.44531 0.3125-0.72266 0.64062-0.82812 0.98438-0.10156 0.33594-0.054688 0.63672 0.14062 0.90625 0.13672 0.19922 0.3125 0.32031 0.53125 0.35938 0.21094 0.042969 0.42969 0.03125 0.65625-0.03125 0.23047-0.070313 0.53906-0.17969 0.9375-0.32812 0.4375-0.16406 0.80078-0.28516 1.0938-0.35938 0.30078-0.070313 0.59766-0.070313 0.89062 0 0.28906 0.0625 0.54688 0.25 0.76562 0.5625 0.17578 0.26172 0.26953 0.54688 0.28125 0.85938 0.007813 0.3125-0.089844 0.63281-0.29688 0.95312-0.19922 0.32422-0.50781 0.63281-0.92188 0.92188z"/>
</g>
</g>
<g transform="translate(-74.379 -91.676)">
<g transform="translate(221.89 247.21)">
<path d="m-2.2812-5.7188-1.625 1.5312-0.375-0.40625 3.7188-3.5 0.375 0.40625-1.6094 1.5312 3.9219 4.1719-0.48438 0.4375z"/>
</g>
</g>
<g transform="translate(-74.379 -91.676)">
<g transform="translate(229.91 239.11)">
<path d="m3.2969-4.1719-2.4688-0.125c-0.09375 0.13672-0.19531 0.27344-0.29688 0.40625l-1.0469 1.3281 1.5625 1.2344-0.40625 0.51562-4.9375-3.8906 1.4531-1.8438c0.5-0.625 1.043-1 1.625-1.125 0.58594-0.125 1.1406 0.023437 1.6719 0.4375 0.38281 0.3125 0.62891 0.67188 0.73438 1.0781 0.11328 0.40625 0.085938 0.83594-0.078125 1.2812l2.6406 0.125zm-3.2344-0.0625c0.38281-0.48828 0.57031-0.94141 0.5625-1.3594-0.011719-0.42578-0.21094-0.79688-0.59375-1.1094-0.40625-0.3125-0.81641-0.42578-1.2344-0.34375-0.41406 0.085937-0.81641 0.37109-1.2031 0.85938l-1.0312 1.3125 2.4688 1.9531z"/>
</g>
</g>
<g transform="translate(-74.379 -91.676)">
<g transform="translate(237.42 228.8)">
<path d="m0.96875-5.1562-1.7188 3.0469 1.0938 1.5-0.34375 0.59375-4.0781-5.5781 0.32812-0.57812 6.8906 0.57812-0.34375 0.60938zm-0.59375-0.03125-3.6719-0.35938 2.1875 2.9844z"/>
</g>
</g>
<g transform="translate(-74.379 -91.676)">
<g transform="translate(243.17 217.5)">
<path d="m-4.5469-4.1406-0.78125 2.0781-0.53125-0.20312 1.7969-4.7656 0.53125 0.20312-0.78125 2.0781 5.3438 2.0312-0.23438 0.60938z"/>
</g>
</g>
<g transform="translate(-74.379 -91.676)">
<g transform="translate(246.85 206.7)">
<path d="m0.82812-3.6719c-0.13672 0.60547-0.39062 1.125-0.76562 1.5625s-0.82812 0.75-1.3594 0.9375c-0.53125 0.17969-1.0938 0.20312-1.6875 0.078125-0.58203-0.125-1.082-0.375-1.5-0.75-0.41406-0.38281-0.70703-0.85156-0.875-1.4062-0.17578-0.55078-0.19531-1.1289-0.0625-1.7344 0.125-0.61328 0.375-1.1406 0.75-1.5781s0.83594-0.74219 1.375-0.92188c0.53125-0.17578 1.0898-0.20312 1.6719-0.078125 0.59375 0.125 1.1055 0.38281 1.5312 0.76562 0.41406 0.375 0.70312 0.83984 0.85938 1.3906 0.16406 0.54297 0.1875 1.1211 0.0625 1.7344zm-0.5625-0.125c0.09375-0.48828 0.066406-0.95312-0.078125-1.3906-0.13672-0.4375-0.375-0.80469-0.71875-1.1094-0.34375-0.3125-0.75391-0.51562-1.2344-0.60938-0.47656-0.10156-0.9375-0.082031-1.375 0.0625-0.4375 0.13672-0.80469 0.375-1.1094 0.71875-0.30078 0.34375-0.5 0.76172-0.59375 1.25-0.10156 0.48047-0.085938 0.94531 0.046875 1.3906 0.13672 0.4375 0.375 0.8125 0.71875 1.125s0.75781 0.52344 1.2344 0.625c0.48047 0.09375 0.9375 0.070313 1.375-0.078125 0.4375-0.14453 0.8125-0.39062 1.125-0.73438 0.30469-0.35156 0.50391-0.76953 0.60938-1.25z"/>
</g>
</g>
<g transform="translate(-74.379 -91.676)">
<g transform="translate(249.14 193.08)">
<path d="m0.23438-5.3125-2.0781 1.3438c0 0.15625-0.00391 0.32422-0.015625 0.5l-0.0625 1.6875 2 0.09375-0.03125 0.65625-6.2812-0.26562 0.09375-2.3438c0.042969-0.80078 0.26172-1.4219 0.65625-1.8594 0.39844-0.44531 0.93359-0.65625 1.6094-0.625 0.49219 0.023438 0.90234 0.16406 1.2344 0.42188 0.32422 0.26172 0.54688 0.625 0.67188 1.0938l2.2344-1.4375zm-2.6562 1.8438c0.03125-0.625-0.082031-1.1016-0.34375-1.4375-0.25781-0.34375-0.63281-0.52344-1.125-0.54688-0.50781-0.019531-0.91016 0.125-1.2031 0.4375-0.28906 0.3125-0.45312 0.78125-0.48438 1.4062l-0.0625 1.6719 3.1562 0.14062z"/>
</g>
</g>
</svg>
